<svg version="1.1" viewBox="0.0 0.0 80.0 55.0" fill="none" stroke="none" stroke-linecap="square" stroke-miterlimit="10" xmlns:xlink="http://www.w3.org/1999/xlink" xmlns="http://www.w3.org/2000/svg"><clipPath id="p.0"><path d="m0 0l80.0 0l0 55.0l-80.0 0l0 -55.0z" clip-rule="nonzero"/></clipPath><g clip-path="url(#p.0)"><path fill="#efe6dd" d="m0 0l80.0 0l0 55.0l-80.0 0z" fill-rule="evenodd"/><path fill="#7f95d1" d="m34.80315 49.16798l10.3937 0l0 -10.393703l-10.3937 0z" fill-rule="evenodd"/><path stroke="#000000" stroke-width="1.0" stroke-linejoin="round" stroke-linecap="butt" d="m34.80315 49.16798l10.3937 0l0 -10.393703l-10.3937 0z" fill-rule="evenodd"/><path fill="#000000" fill-opacity="0.0" d="m16.131233 16.884514l20.188976 21.889763" fill-rule="evenodd"/><path stroke="#ff0000" stroke-width="1.0" stroke-linejoin="round" stroke-linecap="butt" stroke-dasharray="4.0,3.0" d="m16.131233 16.884514l16.121143 17.47924" fill-rule="evenodd"/><path fill="#ff0000" stroke="#ff0000" stroke-width="1.0" stroke-linecap="butt" d="m31.038208 35.483585l4.2908707 2.2160683l-1.8625374 -4.4557266z" fill-rule="evenodd"/><path fill="#000000" fill-opacity="0.0" d="m65.068245 16.884514l-21.38583 21.889763" fill-rule="evenodd"/><path stroke="#ff0000" stroke-width="1.0" stroke-linejoin="round" stroke-linecap="butt" stroke-dasharray="4.0,3.0" d="m65.068245 16.884514l-17.192883 17.598011" fill-rule="evenodd"/><path fill="#ff0000" stroke="#ff0000" stroke-width="1.0" stroke-linecap="butt" d="m46.693893 33.32825l-1.9898643 4.400341l4.35281 -2.0917969z" fill-rule="evenodd"/><path fill="#edcb96" d="m59.87139 11.687664l0 0c0 2.870141 2.3267097 5.19685 5.1968536 5.19685l0 0c1.3782883 0 2.7001266 -0.5475235 3.6747284 -1.5221214c0.9745941 -0.9745989 1.5221176 -2.2964382 1.5221176 -3.6747284l0 0c0 -2.870141 -2.326706 -5.1968503 -5.196846 -5.1968503l0 0c-2.870144 0 -5.1968536 2.3267093 -5.1968536 5.1968503z" fill-rule="evenodd"/><path stroke="#000000" stroke-width="1.0" stroke-linejoin="round" stroke-linecap="butt" d="m59.87139 11.687664l0 0c0 2.870141 2.3267097 5.19685 5.1968536 5.19685l0 0c1.3782883 0 2.7001266 -0.5475235 3.6747284 -1.5221214c0.9745941 -0.9745989 1.5221176 -2.2964382 1.5221176 -3.6747284l0 0c0 -2.870141 -2.326706 -5.1968503 -5.196846 -5.1968503l0 0c-2.870144 0 -5.1968536 2.3267093 -5.1968536 5.1968503z" fill-rule="evenodd"/><path fill="#000000" fill-opacity="0.0" d="m21.32021 11.687664l38.55118 0" fill-rule="evenodd"/><path stroke="#ff0000" stroke-width="1.0" stroke-linejoin="round" stroke-linecap="butt" stroke-dasharray="4.0,3.0" d="m21.32021 11.687664l32.55118 0" fill-rule="evenodd"/><path fill="#ff0000" stroke="#ff0000" stroke-width="1.0" stroke-linecap="butt" d="m53.87139 13.339396l4.5380974 -1.6517324l-4.5380974 -1.6517324z" fill-rule="evenodd"/><path fill="#a70e16" d="m10.926509 11.687664l0 0c0 2.870141 2.3267097 5.19685 5.196851 5.19685l0 0c1.3782902 0 2.7001305 -0.5475235 3.6747284 -1.5221214c0.97459793 -0.9745989 1.5221214 -2.2964382 1.5221214 -3.6747284l0 0c0 -2.870141 -2.3267078 -5.1968503 -5.19685 -5.1968503l0 0c-2.870141 0 -5.196851 2.3267093 -5.196851 5.1968503z" fill-rule="evenodd"/><path stroke="#000000" stroke-width="1.0" stroke-linejoin="round" stroke-linecap="butt" d="m10.926509 11.687664l0 0c0 2.870141 2.3267097 5.19685 5.196851 5.19685l0 0c1.3782902 0 2.7001305 -0.5475235 3.6747284 -1.5221214c0.97459793 -0.9745989 1.5221214 -2.2964382 1.5221214 -3.6747284l0 0c0 -2.870141 -2.3267078 -5.1968503 -5.19685 -5.1968503l0 0c-2.870141 0 -5.196851 2.3267093 -5.196851 5.1968503z" fill-rule="evenodd"/></g></svg>