<svg version="1.1" viewBox="0.0 0.0 80.0 55.0" fill="none" stroke="none" stroke-linecap="square" stroke-miterlimit="10" xmlns:xlink="http://www.w3.org/1999/xlink" xmlns="http://www.w3.org/2000/svg"><clipPath id="p.0"><path d="m0 0l80.0 0l0 55.0l-80.0 0l0 -55.0z" clip-rule="nonzero"/></clipPath><g clip-path="url(#p.0)"><path fill="#efe6dd" d="m0 0l80.0 0l0 55.0l-80.0 0z" fill-rule="evenodd"/><path fill="#a70e16" d="m34.80315 11.687664l0 0c0 -2.870141 2.3267097 -5.1968503 5.19685 -5.1968503l0 0c1.3782921 0 2.7001305 0.5475235 3.6747284 1.5221219c0.97459793 0.9745989 1.5221214 2.2964382 1.5221214 3.6747284l0 0c0 2.870141 -2.3267097 5.19685 -5.19685 5.19685l0 0c-2.87014 0 -5.19685 -2.3267088 -5.19685 -5.19685z" fill-rule="evenodd"/><path stroke="#000000" stroke-width="1.0" stroke-linejoin="round" stroke-linecap="butt" d="m34.80315 11.687664l0 0c0 -2.870141 2.3267097 -5.1968503 5.19685 -5.1968503l0 0c1.3782921 0 2.7001305 0.5475235 3.6747284 1.5221219c0.97459793 0.9745989 1.5221214 2.2964382 1.5221214 3.6747284l0 0c0 2.870141 -2.3267097 5.19685 -5.19685 5.19685l0 0c-2.87014 0 -5.19685 -2.3267088 -5.19685 -5.19685z" fill-rule="evenodd"/><path fill="#edcb96" d="m10.934383 42.446194l0 0c0 -2.87014 2.3267088 -5.19685 5.19685 -5.19685l0 0c1.3782902 0 2.7001305 0.5475235 3.6747284 1.5221214c0.97459793 0.97459793 1.5221214 2.2964401 1.5221214 3.6747284l0 0c0 2.87014 -2.3267078 5.19685 -5.19685 5.19685l0 0c-2.870141 0 -5.19685 -2.3267097 -5.19685 -5.19685z" fill-rule="evenodd"/><path stroke="#000000" stroke-width="1.0" stroke-linejoin="round" stroke-linecap="butt" d="m10.934383 42.446194l0 0c0 -2.87014 2.3267088 -5.19685 5.19685 -5.19685l0 0c1.3782902 0 2.7001305 0.5475235 3.6747284 1.5221214c0.97459793 0.97459793 1.5221214 2.2964401 1.5221214 3.6747284l0 0c0 2.87014 -2.3267078 5.19685 -5.19685 5.19685l0 0c-2.870141 0 -5.19685 -2.3267097 -5.19685 -5.19685z" fill-rule="evenodd"/><path fill="#7f95d1" d="m59.87139 37.249344l10.3937 0l0 10.3937l-10.3937 0z" fill-rule="evenodd"/><path stroke="#000000" stroke-width="1.0" stroke-linejoin="round" stroke-linecap="butt" d="m59.87139 37.249344l10.3937 0l0 10.3937l-10.3937 0z" fill-rule="evenodd"/><path fill="#000000" fill-opacity="0.0" d="m43.67473 15.362392l21.385826 21.889763" fill-rule="evenodd"/><path stroke="#000000" stroke-width="1.0" stroke-linejoin="round" stroke-linecap="butt" d="m43.67473 15.362392l21.385826 21.889763" fill-rule="evenodd"/><path fill="#000000" fill-opacity="0.0" d="m36.32527 15.362392l-20.188976 21.889763" fill-rule="evenodd"/><path stroke="#000000" stroke-width="1.0" stroke-linejoin="round" stroke-linecap="butt" d="m36.32527 15.362392l-20.188976 21.889763" fill-rule="evenodd"/><path fill="#000000" fill-opacity="0.0" d="m21.328083 42.446194l38.55118 0" fill-rule="evenodd"/><path stroke="#000000" stroke-width="1.0" stroke-linejoin="round" stroke-linecap="butt" d="m21.328083 42.446194l38.55118 0" fill-rule="evenodd"/></g></svg>