<?xml version="1.0" encoding="UTF-8" standalone="no"?>
<!-- Created with Inkscape (http://www.inkscape.org/) -->

<svg
   xmlns:dc="http://purl.org/dc/elements/1.1/"
   xmlns:cc="http://creativecommons.org/ns#"
   xmlns:rdf="http://www.w3.org/1999/02/22-rdf-syntax-ns#"
   xmlns:svg="http://www.w3.org/2000/svg"
   xmlns="http://www.w3.org/2000/svg"
   xmlns:sodipodi="http://sodipodi.sourceforge.net/DTD/sodipodi-0.dtd"
   xmlns:inkscape="http://www.inkscape.org/namespaces/inkscape"
   width="5.4328594in"
   height="4.7964425in"
   viewBox="0 0 488.95735 431.67981"
   id="svg2"
   version="1.1"
   inkscape:version="0.91 r13725"
   sodipodi:docname="final-logo.svg">
  <sodipodi:namedview
     id="base"
     pagecolor="#ffffff"
     bordercolor="#666666"
     borderopacity="1.0"
     inkscape:pageopacity="0.0"
     inkscape:pageshadow="2"
     inkscape:zoom="1.2113908"
     inkscape:cx="482.80167"
     inkscape:cy="113.71619"
     inkscape:document-units="px"
     inkscape:current-layer="layer1"
     showgrid="false"
     inkscape:window-width="1825"
     inkscape:window-height="1144"
     inkscape:window-x="60"
     inkscape:window-y="398"
     inkscape:window-maximized="0"
     inkscape:snap-global="false"
     inkscape:snap-object-midpoints="true"
     inkscape:snap-others="true"
     inkscape:snap-nodes="false"
     fit-margin-top="0"
     fit-margin-left="0"
     fit-margin-right="0"
     fit-margin-bottom="0"
     units="in" />
  <defs
     id="defs4" />
  <metadata
     id="metadata7">
    <rdf:RDF>
      <cc:Work
         rdf:about="">
        <dc:format>image/svg+xml</dc:format>
        <dc:type
           rdf:resource="http://purl.org/dc/dcmitype/StillImage" />
        <dc:title></dc:title>
      </cc:Work>
    </rdf:RDF>
  </metadata>
  <g
     inkscape:label="Layer 1"
     inkscape:groupmode="layer"
     id="layer1"
     transform="translate(-90.680373,-40.642134)">
    <g
       id="g5220"
       transform="matrix(0.72205916,0,0,0.72205916,-369.13845,-644.56981)"
       style="stroke-width:1.5;stroke-miterlimit:4;stroke-dasharray:none">
      <path
         sodipodi:nodetypes="cccccccccccczccccccccccc"
         inkscape:connector-curvature="0"
         id="path4629"
         d="m 999.93496,1091.8938 c 16.68054,-7.3993 6.79874,2.7353 21.42864,-8.5714 12.901,-25.045 33.733,-57.1657 52.1429,-70.7143 -6.8518,-18.45602 -20.319,-26.33552 -15.7143,-42.85712 11.0333,4.9069 14.93,11.0487 34.2857,16.4285 19.3556,5.3798 64.1176,-3.5225 80,7.1429 15.8825,10.66542 11.375,14.18132 17.1429,29.28572 -4.9464,5.8187 -6.9187,-5.8246 -12.8572,-4.2857 -5.9386,1.5388 -11.9798,10.4933 -18.1908,16.3173 -5.5437,-9.3985 -4.9175,-17.7749 -8.952,-24.1745 -7.5091,-1.3114 -14.1545,0.8369 -22.1429,3.5715 33.0179,40.8107 39.5767,15.3111 62.1429,15 8.2805,-3.1683 35.7152,6.6878 35,18.5714 -0.7152,11.8836 -2.4426,13.497 -6.4286,21.4286 -8.4942,-17.5431 -27.1804,-21.4046 -85.7143,-27.8572 8.609,14.976 28.8072,22.0386 40,25.7143 11.1928,3.6757 11.393,-0.2427 23.5714,2.1429 -9.9645,9.5284 -16.2877,9.9023 -28.5714,11.4285 -12.2837,1.5262 -25.7779,-9.3211 -40,-11.4285 -6.365,38.6068 -1.7609,45.3176 14.2857,72.1428 -32.5248,-0.3177 -30.2959,-11.053 -46.4286,-32.8571 -1.1327,19.6244 -11.6585,38.075 -27.8571,35.7143 -16.1986,-2.3608 -22.832,-25.1132 -19.2857,-49.2857 -9.3109,18.6846 -30.9663,14.542 -47.85724,-2.8572 z"
         style="fill:#a70d16;fill-opacity:1;fill-rule:evenodd;stroke:#000000;stroke-width:3;stroke-linecap:butt;stroke-linejoin:miter;stroke-miterlimit:4;stroke-dasharray:none;stroke-opacity:1" />
      <path
         sodipodi:nodetypes="czcscccsccccczczzccc"
         inkscape:connector-curvature="0"
         id="path4631"
         d="m 817.28526,1294.9967 c -3.2007,-8.6219 -29.6729,-2.0558 -27.1428,-20.0001 2.53,-17.9442 98.4354,-37.1125 84.2856,-77.1428 -28.4355,-47.8875 -96.8156,-20.8691 -140.7142,-4.2857 -31.6625,11.961 -71.28,27.3389 -89.28578,43.5714 -13.72007,19.804 3.51128,26.3993 -4.28572,45 20.06014,-13.5421 18.9445,-38.6086 56.4286,-45 -22.51594,57.18 -30.86253,73.0586 -25.71431,100.7143 4.34368,23.3338 30.10581,40.3762 46.42861,72.1429 4.8943,-12.5191 12.8677,-19.5745 12.8571,-37.8572 -17.1534,-33.2827 -56.10902,-72.2429 -28.5714,-117.8571 4.6805,47.2429 12.8544,49.664 20,60.7143 7.8598,11.0503 12.5592,14.7961 25,40 11.0123,-9.7961 23.7059,-12.5029 20,-30 -3.7059,-17.4971 -60.0985,-60.6382 -42.8572,-97.1429 12.2414,-21.5048 110.6578,-53.8521 126.4286,-35 15.7708,18.8521 -5.9951,31.4849 -42.8571,48.5714 -36.862,17.0865 -39.632,34.5662 -33.5714,50.7143 4.6381,16.1141 26.0925,17.492 38.5714,16.4286 9.3815,-4.1608 8.2007,-4.9495 5,-13.5714 z"
         style="fill:#a70d16;fill-opacity:1;fill-rule:evenodd;stroke:#000000;stroke-width:3;stroke-linecap:butt;stroke-linejoin:miter;stroke-miterlimit:4;stroke-dasharray:none;stroke-opacity:1" />
      <path
         sodipodi:nodetypes="zzcccccccccccccccccccz"
         inkscape:connector-curvature="0"
         id="path4641"
         d="m 801.51726,1416.559 c 1.0247,-19.4212 8.2799,-3.4895 18.9814,-1.4267 10.7015,2.0628 31.6691,8.2346 47.9694,0.1902 -28.8671,-0.4638 -72.7659,-37.3767 -84.0936,-58.7635 -13.5784,17.5775 -3.339,36.9749 -10,49.2857 -10.2324,4.4536 -4.8972,-9.4506 -11.4286,-6.4286 -6.5314,3.022 -6.8039,21.5198 -2.1429,28.5715 3.3227,5.7134 16.3429,2.8288 21.4286,7.8571 4.6101,4.5527 10.2148,9.8579 5.7143,15 -7.2001,8.5166 -22.9218,-6.5671 -24.2857,-5.7143 -6.1553,6.842 2.1596,21.9977 10,28.5714 8.6148,5.0248 26.0541,-1.8184 30.7143,5 5.7772,4.5844 8.9738,6.8494 5,12.1429 -8.3977,6.5575 -29.4301,-10.8507 -25.7143,-4.2857 -4.8968,9.0258 12.2416,23.9573 22.1428,27.1428 9.9012,3.1855 17.3843,-6.5948 24.2857,-4.2856 6.9014,2.3092 13.6191,5.3108 11.4286,11.4285 -2.1905,6.1177 -20.6472,-5.2309 -22.1428,5 5.7393,6.6134 28.32,16.5058 34.2857,19.2857 9.9529,0.7863 13.0883,-0.8261 19.2857,-7.1428 2.474,-8.5507 14.0096,-25.6544 10.7143,-30.7143 -16.7208,-3.3088 -83.1676,-71.2931 -82.1429,-90.7143 z"
         style="fill:#a70d16;fill-opacity:1;fill-rule:evenodd;stroke:#000000;stroke-width:3;stroke-linecap:butt;stroke-linejoin:miter;stroke-miterlimit:4;stroke-dasharray:none;stroke-opacity:1" />
      <path
         style="fill:#a70d16;fill-opacity:1;fill-rule:evenodd;stroke:#000000;stroke-width:3;stroke-linecap:butt;stroke-linejoin:miter;stroke-miterlimit:4;stroke-dasharray:none;stroke-opacity:1"
         d="m 1057.7703,1485.0429 c 15.4703,6.912 96.993,-49.3938 87.9183,-80.7144 -46.9644,-32.9089 -152.90924,-70.8419 -166.75424,-43.819 -13.8449,27.023 52.91544,78.4256 74.49224,83.4048 0.2988,13.5608 -49.1424,49.2653 -42.9465,44.9144 6.4498,14.6871 49.9521,24.9665 57.0969,24.0517 2.2737,8.4166 -17.4071,17.9157 9.636,16.5036 18.2107,-1.2847 16.1778,-17.5717 26.0057,-14.6623 14.0098,2.967 8.7196,12.3577 5.5787,17.3245 8.9848,1.4263 12.2901,0.059 22.7832,-2.2147 9.6237,-3.4599 1.7831,-21.1948 16.3935,-19.3524 5.6047,1.5762 7.2643,4.0544 2.6727,19.8997 12.2627,-0.8366 29.2598,-10.8666 25.6113,-27.7376 6.3829,-3.4957 8.4793,-6.97 11.4806,-1.2066 5.9107,6.9272 -2.5832,11.7569 -0.8663,17.8946 8.752,0.281 12.0886,-10.1529 18.1812,-12.6422 7.3384,-6.7696 5.3665,-16.0029 4.9412,-24.8419 -4.5655,-7.9103 -8.2448,-9.7991 -28.6859,-15.3023 -50.9284,16.2642 -96.9403,35.7572 -123.5386,18.5001 z"
         id="path4643"
         inkscape:connector-curvature="0"
         sodipodi:nodetypes="cczcccccccccccccccc" />
      <g
         style="stroke-width:1.5;stroke-miterlimit:4;stroke-dasharray:none"
         transform="translate(-300.08046,-116.33647)"
         id="g4698">
        <path
           style="fill:#a70d16;fill-opacity:1;fill-rule:evenodd;stroke:#000000;stroke-width:3;stroke-linecap:butt;stroke-linejoin:miter;stroke-miterlimit:4;stroke-dasharray:none;stroke-opacity:1"
           d="m 1444.3702,1399.5204 c -5.3204,6.7663 15.4285,16.6704 32.9683,19.5603 11.036,1.8184 42.5936,12.9416 57.0318,-24.5603 -16.569,-6.2812 -66.8423,-24.4513 -90.0001,5 z"
           id="path4637"
           inkscape:connector-curvature="0"
           sodipodi:nodetypes="sscs" />
        <path
           sodipodi:nodetypes="ssss"
           inkscape:connector-curvature="0"
           id="path4639"
           d="m 1437.7459,1417.4622 c -14.3315,-2.4642 -4.7634,32.5101 9.1273,43.6028 9.1853,7.3351 38.7288,23.4786 42.5954,16.9245 6.919,-11.7281 9.4462,-50.0094 -51.7227,-60.5273 z"
           style="fill:#a70d16;fill-opacity:1;fill-rule:evenodd;stroke:#000000;stroke-width:3;stroke-linecap:butt;stroke-linejoin:miter;stroke-miterlimit:4;stroke-dasharray:none;stroke-opacity:1" />
        <path
           style="fill:#a70d16;fill-opacity:1;fill-rule:evenodd;stroke:#000000;stroke-width:3;stroke-linecap:butt;stroke-linejoin:miter;stroke-miterlimit:4;stroke-dasharray:none;stroke-opacity:1"
           d="m 1495.1418,1433.1553 c 4.1002,-6.7255 32.5615,8.7289 46.2278,3.4295 13.6663,-5.2994 11.3577,-28.221 25.5905,-32.1944 14.2328,-3.9734 34.8916,2.476 41.2748,12.3824 6.3832,9.9064 4.6085,20.793 1.651,27.2414 -11.2125,-13.3635 -42.5824,-25.2991 -51.1808,-12.3824 -8.5984,12.9167 37.3131,7.5475 42.9258,21.4629 5.6127,13.9154 -5.0838,33.746 -14.0334,39.6239 -8.9496,5.8779 -0.78,-14.0099 -10.7315,-18.9865 -9.9515,-4.9766 -30.5579,-13.5977 -38.7983,0.8255 -8.2405,14.4233 0.7806,18.7012 8.2549,22.2885 7.4743,3.5873 15.6122,-2.8098 23.9394,-4.953 5.8507,6.9373 -6.864,30.3745 -19.8119,33.0199 -12.9479,2.6454 -28.651,-10.6172 -33.0199,-23.9394 -4.3689,-13.3222 17.2927,-26.8132 13.208,-41.2749 -4.0847,-14.4617 -39.5966,-19.8179 -35.4964,-26.5434 z"
           id="path4645"
           inkscape:connector-curvature="0"
           sodipodi:nodetypes="zzzzcczzzzzczzzz" />
      </g>
      <g
         style="stroke-width:1.5;stroke-miterlimit:4;stroke-dasharray:none"
         transform="translate(-304.75018,-115.16904)"
         id="g4693">
        <path
           style="fill:#a70d16;fill-opacity:1;fill-rule:evenodd;stroke:#000000;stroke-width:3;stroke-linecap:butt;stroke-linejoin:miter;stroke-miterlimit:4;stroke-dasharray:none;stroke-opacity:1"
           d="m 1448.6559,1311.6633 c 5.201,13.5799 38.0559,-9.949 50.1111,-24.0111 7.6506,-8.9244 13.3125,-32.4269 2.7462,-32.4175 -22.3336,0.02 -64.3413,26.4432 -52.8573,56.4286 z"
           id="path4633"
           inkscape:connector-curvature="0"
           sodipodi:nodetypes="ssss" />
        <path
           sodipodi:nodetypes="ssss"
           inkscape:connector-curvature="0"
           id="path4635"
           d="m 1457.9417,1328.8061 c -12.538,7.3664 17.3416,27.9082 35.1111,27.4175 11.7503,-0.3245 44.7365,-7.0584 43.4604,-14.5603 -2.2833,-13.4241 -25.0575,-44.2978 -78.5715,-12.8572 z"
           style="fill:#a70d16;fill-opacity:1;fill-rule:evenodd;stroke:#000000;stroke-width:3;stroke-linecap:butt;stroke-linejoin:miter;stroke-miterlimit:4;stroke-dasharray:none;stroke-opacity:1" />
        <path
           sodipodi:nodetypes="zzzzcczzzzzczzzz"
           inkscape:connector-curvature="0"
           id="path4647"
           d="m 1494.3359,1304.2811 c -1.0083,-7.812 30.8899,-17.8676 38.237,-30.5512 7.3471,-12.6835 -9.6183,-32.4243 -0.9997,-44.4277 8.6185,-12.0033 27.1196,-19.8949 38.2966,-16.1592 11.1771,3.7358 14.9516,17.4669 16.6781,24.3479 -12.8472,-10.5122 -44.3726,-0.8922 -45.1996,18.2285 2.5634,13.0728 40.9927,-18.5658 51.0436,-5.1546 10.0509,13.4111 13.0162,21.2531 13.8384,28.9609 0.8222,7.7078 -8.547,-7.9658 -19.4241,-5.6232 -10.8771,2.3426 -36.4743,5.205 -33.8808,21.6126 2.5935,16.4076 15.6793,10.1723 23.0309,8.0143 7.3516,-2.158 10.6305,-8.1263 17.8838,-12.1524 8.9043,1.7524 11.9948,18.0854 3.5479,28.2489 -8.4468,10.1635 -21.565,16.2435 -33.3073,8.5828 -11.7423,-7.6607 -12.3623,-21.0052 -24.5957,-29.7327 -12.2334,-8.7275 -44.1409,13.6171 -45.1491,5.8051 z"
           style="fill:#a70d16;fill-opacity:1;fill-rule:evenodd;stroke:#000000;stroke-width:3;stroke-linecap:butt;stroke-linejoin:miter;stroke-miterlimit:4;stroke-dasharray:none;stroke-opacity:1" />
      </g>
      <g
         transform="translate(-307.08504,-122.17362)"
         id="g5117"
         style="stroke-width:1.5;stroke-miterlimit:4;stroke-dasharray:none">
        <path
           style="fill:none;fill-rule:evenodd;stroke:#000000;stroke-width:1.5;stroke-linecap:butt;stroke-linejoin:miter;stroke-miterlimit:4;stroke-dasharray:none;stroke-opacity:1"
           d="m 1320.7959,1279.374 41.2749,1.651 -35.4964,23.9394"
           id="path5115"
           inkscape:connector-curvature="0"
           sodipodi:nodetypes="ccc" />
        <g
           id="g5014"
           style="stroke-width:1.5;stroke-miterlimit:4;stroke-dasharray:none">
          <path
             inkscape:connector-curvature="0"
             id="path5012"
             d="m 1307.5879,1239.7501 33.8454,9.906"
             style="fill:none;fill-rule:evenodd;stroke:#000000;stroke-width:1.5;stroke-linecap:butt;stroke-linejoin:miter;stroke-miterlimit:4;stroke-dasharray:none;stroke-opacity:1" />
          <g
             style="stroke-width:1.5;stroke-miterlimit:4;stroke-dasharray:none"
             id="g4913">
            <path
               style="fill:none;fill-rule:evenodd;stroke:#000000;stroke-width:1.5;stroke-linecap:butt;stroke-linejoin:miter;stroke-miterlimit:4;stroke-dasharray:none;stroke-opacity:1"
               d="m 1186.2398,1410.6281 45.4023,-10.7315 -1.6509,0"
               id="path4895"
               inkscape:connector-curvature="0" />
            <path
               style="fill:none;fill-rule:evenodd;stroke:#000000;stroke-width:1.5;stroke-linecap:butt;stroke-linejoin:miter;stroke-miterlimit:4;stroke-dasharray:none;stroke-opacity:1"
               d="m 1313.3664,1338.8098 -33.8454,37.1474 3.302,86.6772"
               id="path4897"
               inkscape:connector-curvature="0" />
            <path
               style="fill:none;fill-rule:evenodd;stroke:#000000;stroke-width:1.5;stroke-linecap:butt;stroke-linejoin:miter;stroke-miterlimit:4;stroke-dasharray:none;stroke-opacity:1"
               d="m 1419.8556,1461.8089 -29.7179,-35.4964"
               id="path4899"
               inkscape:connector-curvature="0" />
            <path
               style="fill:none;fill-rule:evenodd;stroke:#000000;stroke-width:1.5;stroke-linecap:butt;stroke-linejoin:miter;stroke-miterlimit:4;stroke-dasharray:none;stroke-opacity:1"
               d="m 1432.238,1283.5015 -84.2007,181.6094"
               id="path4901"
               inkscape:connector-curvature="0" />
            <path
               style="fill:none;fill-rule:evenodd;stroke:#000000;stroke-width:1.5;stroke-linecap:butt;stroke-linejoin:miter;stroke-miterlimit:4;stroke-dasharray:none;stroke-opacity:1"
               d="m 1310.0644,1341.2863 37.1474,123.8246"
               id="path4903"
               inkscape:connector-curvature="0" />
            <path
               style="fill:none;fill-rule:evenodd;stroke:#000000;stroke-width:1.5;stroke-linecap:butt;stroke-linejoin:miter;stroke-miterlimit:4;stroke-dasharray:none;stroke-opacity:1"
               d="m 1230.8167,1460.9834 25.5904,33.0199"
               id="path4905"
               inkscape:connector-curvature="0" />
            <path
               style="fill:none;fill-rule:evenodd;stroke:#000000;stroke-width:1.5;stroke-linecap:butt;stroke-linejoin:miter;stroke-miterlimit:4;stroke-dasharray:none;stroke-opacity:1"
               d="m 1275.3935,1591.412 -8.255,25.5904"
               id="path4907"
               inkscape:connector-curvature="0" />
            <g
               style="stroke-width:1.5;stroke-miterlimit:4;stroke-dasharray:none"
               id="g4804">
              <path
                 inkscape:connector-curvature="0"
                 id="path4792"
                 d="m 1283.6485,1319.8234 -48.7044,-44.5769 85.0263,2.4765 -112.2677,-44.5769 108.9657,-89.9792"
                 style="fill:none;fill-rule:evenodd;stroke:#000000;stroke-width:1.5;stroke-linecap:butt;stroke-linejoin:miter;stroke-miterlimit:4;stroke-dasharray:none;stroke-opacity:1" />
              <path
                 inkscape:connector-curvature="0"
                 id="path4794"
                 d="m 981.51643,1318.9979 38.79837,-18.9865"
                 style="fill:none;fill-rule:evenodd;stroke:#000000;stroke-width:1.5;stroke-linecap:butt;stroke-linejoin:miter;stroke-miterlimit:4;stroke-dasharray:none;stroke-opacity:1" />
              <path
                 inkscape:connector-curvature="0"
                 id="path4796"
                 d="m 1209.3537,1282.676 26.4159,-3.302 0,0 0,0 0,0"
                 style="fill:none;fill-rule:evenodd;stroke:#000000;stroke-width:1.5;stroke-linecap:butt;stroke-linejoin:miter;stroke-miterlimit:4;stroke-dasharray:none;stroke-opacity:1" />
              <path
                 inkscape:connector-curvature="0"
                 id="path4798"
                 d="m 1205.2262,1235.6226 29.7179,42.9259"
                 style="fill:none;fill-rule:evenodd;stroke:#000000;stroke-width:1.5;stroke-linecap:butt;stroke-linejoin:miter;stroke-miterlimit:4;stroke-dasharray:none;stroke-opacity:1" />
              <path
                 inkscape:connector-curvature="0"
                 id="path4800"
                 d="m 1189.5418,1256.2601 -4.953,15.6844 0,0.8255 0,0"
                 style="fill:none;fill-rule:evenodd;stroke:#000000;stroke-width:1.5;stroke-linecap:butt;stroke-linejoin:miter;stroke-miterlimit:4;stroke-dasharray:none;stroke-opacity:1" />
              <path
                 inkscape:connector-curvature="0"
                 id="path4802"
                 d="m 1217.6087,1314.8704 22.2884,8.255 66.8653,-81.7243"
                 style="fill:none;fill-rule:evenodd;stroke:#000000;stroke-width:1.5;stroke-linecap:butt;stroke-linejoin:miter;stroke-miterlimit:4;stroke-dasharray:none;stroke-opacity:1" />
              <g
                 style="stroke-width:1.5;stroke-miterlimit:4;stroke-dasharray:none"
                 id="g4707">
                <path
                   style="fill:none;fill-rule:evenodd;stroke:#000000;stroke-width:1.5;stroke-linecap:butt;stroke-linejoin:miter;stroke-miterlimit:4;stroke-dasharray:none;stroke-opacity:1"
                   d="m 1161.5925,1509.9946 -28.0183,-28.0183 94.5618,-21.0137 0,0"
                   id="path4703"
                   inkscape:connector-curvature="0" />
                <path
                   style="fill:none;fill-rule:evenodd;stroke:#000000;stroke-width:1.5;stroke-linecap:butt;stroke-linejoin:miter;stroke-miterlimit:4;stroke-dasharray:none;stroke-opacity:1"
                   d="M 1258.4892,1499.4878 1135.909,1481.9763"
                   id="path4705"
                   inkscape:connector-curvature="0" />
                <g
                   id="g4828"
                   transform="translate(906.54151,1053.5244)"
                   style="stroke-width:1.5;stroke-miterlimit:4;stroke-dasharray:none">
                  <g
                     id="g4750"
                     style="stroke-width:1.5;stroke-miterlimit:4;stroke-dasharray:none">
                    <path
                       style="fill:none;fill-rule:evenodd;stroke:#000000;stroke-width:1.5;stroke-linecap:butt;stroke-linejoin:miter;stroke-miterlimit:4;stroke-dasharray:none;stroke-opacity:1"
                       d="M 77.857143,265.21932 45.714286,274.50504 60,218.07647 l 52.14286,26.42857 -27.14286,-75 45,45 53.57143,-6.42857 -70.71429,-73.57143 0,112.14286 -0.71428,0"
                       id="path4728"
                       inkscape:connector-curvature="0" />
                    <path
                       style="fill:none;fill-rule:evenodd;stroke:#000000;stroke-width:1.5;stroke-linecap:butt;stroke-linejoin:miter;stroke-miterlimit:4;stroke-dasharray:none;stroke-opacity:1"
                       d="m 147.14286,100.93361 38.57143,108.57143 30,-15 -102.85715,-60 z"
                       id="path4730"
                       inkscape:connector-curvature="0" />
                    <path
                       sodipodi:nodetypes="cccccccccccccccccccccccccccccccccccc"
                       style="fill:none;fill-rule:evenodd;stroke:#000000;stroke-width:1.5;stroke-linecap:butt;stroke-linejoin:miter;stroke-miterlimit:4;stroke-dasharray:none;stroke-opacity:1"
                       d="m 150.71429,100.93361 36.42857,-27.142857 42.14285,-21.428571 47.14286,-20 L 260,193.07647 l -45,2.14285 15,-141.428567 65,124.999997 -35.71429,13.57143 -76.42857,-117.857141 225,14.285714 L 335,24.505039 298.57143,181.6479 l -16.42857,21.42857 20,25 -25,-5.71429 109.28571,-75 -59.28571,76.42857 L 392.85714,40.219324 412.14286,87.362182 277.85714,34.505039 337.14286,23.076467 381.42857,146.6479 400,188.79075 l -90,72.85715 20.22242,-37.85715 4.55516,45.22242 -20.16728,18.69982 26.9765,-0.63743 35.46203,-19.04611 7.99819,-21.77938 25.66727,-20.31646 -11.42858,-42.85714 -171.42857,-132.14286 157.79295,195.20524 -0.71428,0"
                       id="path4732"
                       inkscape:connector-curvature="0" />
                    <path
                       style="fill:none;fill-rule:evenodd;stroke:#000000;stroke-width:1.5;stroke-linecap:butt;stroke-linejoin:miter;stroke-miterlimit:4;stroke-dasharray:none;stroke-opacity:1"
                       d="m 432.85714,194.50504 21.27035,32.83996 35.15822,-11.41139 37.14286,12.14286 -119.28571,60 L 420,250.93361 531.42857,273.79075 567.14286,318.07647 452.96836,226.40829 399.28571,185.21932 527.14286,345.93361 374.28571,322.36218 482.14286,375.21932 445,413.07647 l -65.71429,-2.14286 29.28572,-124.28571 117.14286,60.71428 -12.85715,60.71429 -20,-192.14286 -52.14285,197.14286 -117.85715,-67.14286 50.71429,-25 -50,87.14286 L 275,357.36218 227.14286,429.50504 221.42857,388.07647 325,406.6479 532.14286,275.93361 l 0,-0.71429"
                       id="path4734"
                       inkscape:connector-curvature="0"
                       sodipodi:nodetypes="ccccccccccccccccccccccccccccc" />
                    <path
                       style="fill:none;fill-rule:evenodd;stroke:#000000;stroke-width:1.5;stroke-linecap:butt;stroke-linejoin:miter;stroke-miterlimit:4;stroke-dasharray:none;stroke-opacity:1"
                       d="m 230.71429,363.07647 45,-5.71429 -20.90629,101.04457 98.76343,-9.616 -57.85714,39.28572 69.28571,10.71428 -12.14286,-50 z"
                       id="path4736"
                       inkscape:connector-curvature="0"
                       sodipodi:nodetypes="cccccccc" />
                    <path
                       style="fill:none;fill-rule:evenodd;stroke:#000000;stroke-width:1.5;stroke-linecap:butt;stroke-linejoin:miter;stroke-miterlimit:4;stroke-dasharray:none;stroke-opacity:1"
                       d="m 262.85714,497.36218 -34.9358,-0.15822 19.39693,25.33363 119.1103,-21.60398 -50.71428,54.28571 -55,-57.14285 L 295,486.6479 l 67.85714,52.85714 -45.71428,17.14286 5.71428,-148.57143 0,0"
                       id="path4738"
                       inkscape:connector-curvature="0"
                       sodipodi:nodetypes="ccccccccccc" />
                    <path
                       style="fill:none;fill-rule:evenodd;stroke:#000000;stroke-width:1.5;stroke-linecap:butt;stroke-linejoin:miter;stroke-miterlimit:4;stroke-dasharray:none;stroke-opacity:1"
                       d="M 278.36618,541.15603 295,485.21932 l 0,0.71429 0,0"
                       id="path4740"
                       inkscape:connector-curvature="0"
                       sodipodi:nodetypes="cccc" />
                    <path
                       style="fill:none;fill-rule:evenodd;stroke:#000000;stroke-width:1.5;stroke-linecap:butt;stroke-linejoin:miter;stroke-miterlimit:4;stroke-dasharray:none;stroke-opacity:1"
                       d="m 357.85714,565.21932 -41.42857,-7.85714 -38.33182,-15.38065"
                       id="path4742"
                       inkscape:connector-curvature="0"
                       sodipodi:nodetypes="ccc" />
                    <path
                       style="fill:none;fill-rule:evenodd;stroke:#000000;stroke-width:1.5;stroke-linecap:butt;stroke-linejoin:miter;stroke-miterlimit:4;stroke-dasharray:none;stroke-opacity:1"
                       d="m 324.28571,347.36218 0,59.28572"
                       id="path4746"
                       inkscape:connector-curvature="0" />
                    <path
                       style="fill:none;fill-rule:evenodd;stroke:#000000;stroke-width:1.5;stroke-linecap:butt;stroke-linejoin:miter;stroke-miterlimit:4;stroke-dasharray:none;stroke-opacity:1"
                       d="m 480.71429,374.50504 52.14285,-98.57143"
                       id="path4748"
                       inkscape:connector-curvature="0" />
                  </g>
                  <g
                     id="g4520"
                     style="stroke-width:1.5;stroke-miterlimit:4;stroke-dasharray:none">
                    <circle
                       style="opacity:1;fill:#a70d16;fill-opacity:1;stroke:#000000;stroke-width:1.5;stroke-miterlimit:4;stroke-dasharray:none;stroke-dashoffset:0;stroke-opacity:1"
                       id="path4384"
                       cx="114.14723"
                       cy="137.16399"
                       r="8.0812206" />
                    <circle
                       r="8.0812206"
                       cy="102.87827"
                       cx="148.43295"
                       id="circle4386"
                       style="opacity:1;fill:#a70d16;fill-opacity:1;stroke:#000000;stroke-width:1.5;stroke-miterlimit:4;stroke-dasharray:none;stroke-dashoffset:0;stroke-opacity:1" />
                    <circle
                       style="opacity:1;fill:#a70d16;fill-opacity:1;stroke:#000000;stroke-width:1.5;stroke-miterlimit:4;stroke-dasharray:none;stroke-dashoffset:0;stroke-opacity:1"
                       id="circle4388"
                       cx="185.57581"
                       cy="75.735413"
                       r="8.0812206" />
                    <circle
                       r="8.0812206"
                       cy="55.021126"
                       cx="229.14723"
                       id="circle4390"
                       style="opacity:1;fill:#a70d16;fill-opacity:1;stroke:#000000;stroke-width:1.5;stroke-miterlimit:4;stroke-dasharray:none;stroke-dashoffset:0;stroke-opacity:1" />
                    <circle
                       style="opacity:1;fill:#a70d16;fill-opacity:1;stroke:#000000;stroke-width:1.5;stroke-miterlimit:4;stroke-dasharray:none;stroke-dashoffset:0;stroke-opacity:1"
                       id="circle4392"
                       cx="279.14725"
                       cy="35.735413"
                       r="8.0812206" />
                    <circle
                       r="8.0812206"
                       cy="35.735413"
                       cx="279.14725"
                       id="circle4394"
                       style="opacity:1;fill:#a70d16;fill-opacity:1;stroke:#000000;stroke-width:1.5;stroke-miterlimit:4;stroke-dasharray:none;stroke-dashoffset:0;stroke-opacity:1" />
                    <circle
                       style="opacity:1;fill:#a70d16;fill-opacity:1;stroke:#000000;stroke-width:1.5;stroke-miterlimit:4;stroke-dasharray:none;stroke-dashoffset:0;stroke-opacity:1"
                       id="circle4396"
                       cx="337.71869"
                       cy="26.449697"
                       r="8.0812206" />
                    <circle
                       r="8.0812206"
                       cy="41.449699"
                       cx="396.29013"
                       id="circle4398"
                       style="opacity:1;fill:#a70d16;fill-opacity:1;stroke:#000000;stroke-width:1.5;stroke-miterlimit:4;stroke-dasharray:none;stroke-dashoffset:0;stroke-opacity:1" />
                    <circle
                       style="opacity:1;fill:#a70d16;fill-opacity:1;stroke:#000000;stroke-width:1.5;stroke-miterlimit:4;stroke-dasharray:none;stroke-dashoffset:0;stroke-opacity:1"
                       id="circle4400"
                       cx="411.29013"
                       cy="90.021126"
                       r="8.0812206" />
                    <circle
                       r="8.0812206"
                       cy="149.30684"
                       cx="385.57584"
                       id="circle4402"
                       style="opacity:1;fill:#a70d16;fill-opacity:1;stroke:#000000;stroke-width:1.5;stroke-miterlimit:4;stroke-dasharray:none;stroke-dashoffset:0;stroke-opacity:1" />
                    <circle
                       style="opacity:1;fill:#a70d16;fill-opacity:1;stroke:#000000;stroke-width:1.5;stroke-miterlimit:4;stroke-dasharray:none;stroke-dashoffset:0;stroke-opacity:1"
                       id="circle4404"
                       cx="401.29013"
                       cy="187.87827"
                       r="8.0812206" />
                    <circle
                       r="8.0812206"
                       cy="196.44969"
                       cx="434.86157"
                       id="circle4406"
                       style="opacity:1;fill:#a70d16;fill-opacity:1;stroke:#000000;stroke-width:1.5;stroke-miterlimit:4;stroke-dasharray:none;stroke-dashoffset:0;stroke-opacity:1" />
                    <circle
                       style="opacity:1;fill:#a70d16;fill-opacity:1;stroke:#000000;stroke-width:1.5;stroke-miterlimit:4;stroke-dasharray:none;stroke-dashoffset:0;stroke-opacity:1"
                       id="circle4408"
                       cx="455.19522"
                       cy="227.1468"
                       r="8.0812206" />
                    <circle
                       r="8.0812206"
                       cy="216.44969"
                       cx="492.00443"
                       id="circle4410"
                       style="opacity:1;fill:#a70d16;fill-opacity:1;stroke:#000000;stroke-width:1.5;stroke-miterlimit:4;stroke-dasharray:none;stroke-dashoffset:0;stroke-opacity:1" />
                    <circle
                       style="opacity:1;fill:#a70d16;fill-opacity:1;stroke:#000000;stroke-width:1.5;stroke-miterlimit:4;stroke-dasharray:none;stroke-dashoffset:0;stroke-opacity:1"
                       id="circle4412"
                       cx="529.14728"
                       cy="230.02112"
                       r="8.0812206" />
                    <circle
                       r="8.0812206"
                       cy="230.02112"
                       cx="529.14728"
                       id="circle4414"
                       style="opacity:1;fill:#a70d16;fill-opacity:1;stroke:#000000;stroke-width:1.5;stroke-miterlimit:4;stroke-dasharray:none;stroke-dashoffset:0;stroke-opacity:1" />
                    <circle
                       style="opacity:1;fill:#a70d16;fill-opacity:1;stroke:#000000;stroke-width:1.5;stroke-miterlimit:4;stroke-dasharray:none;stroke-dashoffset:0;stroke-opacity:1"
                       id="circle4416"
                       cx="529.14728"
                       cy="230.02112"
                       r="8.0812206" />
                    <circle
                       r="8.0812206"
                       cy="230.02112"
                       cx="529.14728"
                       id="circle4418"
                       style="opacity:1;fill:#a70d16;fill-opacity:1;stroke:#000000;stroke-width:1.5;stroke-miterlimit:4;stroke-dasharray:none;stroke-dashoffset:0;stroke-opacity:1" />
                    <circle
                       style="opacity:1;fill:#a70d16;fill-opacity:1;stroke:#000000;stroke-width:1.5;stroke-miterlimit:4;stroke-dasharray:none;stroke-dashoffset:0;stroke-opacity:1"
                       id="circle4420"
                       cx="529.14728"
                       cy="230.02112"
                       r="8.0812206" />
                    <circle
                       r="8.0812206"
                       cy="275.73541"
                       cx="534.14728"
                       id="circle4422"
                       style="opacity:1;fill:#a70d16;fill-opacity:1;stroke:#000000;stroke-width:1.5;stroke-miterlimit:4;stroke-dasharray:none;stroke-dashoffset:0;stroke-opacity:1" />
                    <circle
                       style="opacity:1;fill:#a70d16;fill-opacity:1;stroke:#000000;stroke-width:1.5;stroke-miterlimit:4;stroke-dasharray:none;stroke-dashoffset:0;stroke-opacity:1"
                       id="circle4424"
                       cx="567.71869"
                       cy="318.59256"
                       r="8.0812206" />
                    <circle
                       r="8.0812206"
                       cy="351.44971"
                       cx="529.86157"
                       id="circle4426"
                       style="opacity:1;fill:#a70d16;fill-opacity:1;stroke:#000000;stroke-width:1.5;stroke-miterlimit:4;stroke-dasharray:none;stroke-dashoffset:0;stroke-opacity:1" />
                    <circle
                       style="opacity:1;fill:#a70d16;fill-opacity:1;stroke:#000000;stroke-width:1.5;stroke-miterlimit:4;stroke-dasharray:none;stroke-dashoffset:0;stroke-opacity:1"
                       id="circle4428"
                       cx="514.86157"
                       cy="407.87827"
                       r="8.0812206" />
                    <circle
                       r="8.0812206"
                       cy="375.73541"
                       cx="482.71872"
                       id="circle4430"
                       style="opacity:1;fill:#a70d16;fill-opacity:1;stroke:#000000;stroke-width:1.5;stroke-miterlimit:4;stroke-dasharray:none;stroke-dashoffset:0;stroke-opacity:1" />
                    <circle
                       style="opacity:1;fill:#a70d16;fill-opacity:1;stroke:#000000;stroke-width:1.5;stroke-miterlimit:4;stroke-dasharray:none;stroke-dashoffset:0;stroke-opacity:1"
                       id="circle4432"
                       cx="441.29016"
                       cy="413.59256"
                       r="8.0812206" />
                    <circle
                       r="8.0812206"
                       cy="412.164"
                       cx="379.14731"
                       id="circle4434"
                       style="opacity:1;fill:#a70d16;fill-opacity:1;stroke:#000000;stroke-width:1.5;stroke-miterlimit:4;stroke-dasharray:none;stroke-dashoffset:0;stroke-opacity:1" />
                    <circle
                       style="opacity:1;fill:#a70d16;fill-opacity:1;stroke:#000000;stroke-width:1.5;stroke-miterlimit:4;stroke-dasharray:none;stroke-dashoffset:0;stroke-opacity:1"
                       id="circle4436"
                       cx="324.14731"
                       cy="407.8783"
                       r="8.0812206" />
                    <circle
                       r="8.0812206"
                       cy="447.164"
                       cx="352.71875"
                       id="circle4438"
                       style="opacity:1;fill:#a70d16;fill-opacity:1;stroke:#000000;stroke-width:1.5;stroke-miterlimit:4;stroke-dasharray:none;stroke-dashoffset:0;stroke-opacity:1" />
                    <circle
                       style="opacity:1;fill:#a70d16;fill-opacity:1;stroke:#000000;stroke-width:1.5;stroke-miterlimit:4;stroke-dasharray:none;stroke-dashoffset:0;stroke-opacity:1"
                       id="circle4440"
                       cx="367.71875"
                       cy="497.8783"
                       r="8.0812206" />
                    <circle
                       r="8.0812206"
                       cy="537.164"
                       cx="369.14734"
                       id="circle4442"
                       style="opacity:1;fill:#a70d16;fill-opacity:1;stroke:#000000;stroke-width:1.5;stroke-miterlimit:4;stroke-dasharray:none;stroke-dashoffset:0;stroke-opacity:1" />
                    <circle
                       style="opacity:1;fill:#a70d16;fill-opacity:1;stroke:#000000;stroke-width:1.5;stroke-miterlimit:4;stroke-dasharray:none;stroke-dashoffset:0;stroke-opacity:1"
                       id="circle4444"
                       cx="362.00449"
                       cy="565.02112"
                       r="8.0812206" />
                    <circle
                       r="8.0812206"
                       cy="556.44971"
                       cx="319.14734"
                       id="circle4446"
                       style="opacity:1;fill:#a70d16;fill-opacity:1;stroke:#000000;stroke-width:1.5;stroke-miterlimit:4;stroke-dasharray:none;stroke-dashoffset:0;stroke-opacity:1" />
                    <circle
                       style="opacity:1;fill:#a70d16;fill-opacity:1;stroke:#000000;stroke-width:1.5;stroke-miterlimit:4;stroke-dasharray:none;stroke-dashoffset:0;stroke-opacity:1"
                       id="circle4448"
                       cx="277.14734"
                       cy="540.02112"
                       r="8.0812206" />
                    <circle
                       r="8.0812206"
                       cy="522.73541"
                       cx="247.29019"
                       id="circle4450"
                       style="opacity:1;fill:#a70d16;fill-opacity:1;stroke:#000000;stroke-width:1.5;stroke-miterlimit:4;stroke-dasharray:none;stroke-dashoffset:0;stroke-opacity:1" />
                    <circle
                       style="opacity:1;fill:#a70d16;fill-opacity:1;stroke:#000000;stroke-width:1.5;stroke-miterlimit:4;stroke-dasharray:none;stroke-dashoffset:0;stroke-opacity:1"
                       id="circle4452"
                       cx="228.00447"
                       cy="497.73541"
                       r="8.0812206" />
                    <circle
                       r="8.0812206"
                       cy="498.59256"
                       cx="263.43304"
                       id="circle4454"
                       style="opacity:1;fill:#a70d16;fill-opacity:1;stroke:#000000;stroke-width:1.5;stroke-miterlimit:4;stroke-dasharray:none;stroke-dashoffset:0;stroke-opacity:1" />
                    <circle
                       style="opacity:1;fill:#a70d16;fill-opacity:1;stroke:#000000;stroke-width:1.5;stroke-miterlimit:4;stroke-dasharray:none;stroke-dashoffset:0;stroke-opacity:1"
                       id="circle4456"
                       cx="296.29019"
                       cy="485.73541"
                       r="8.0812206" />
                    <circle
                       r="8.0812206"
                       cy="458.4697"
                       cx="256.55133"
                       id="circle4458"
                       style="opacity:1;fill:#a70d16;fill-opacity:1;stroke:#000000;stroke-width:1.5;stroke-miterlimit:4;stroke-dasharray:none;stroke-dashoffset:0;stroke-opacity:1" />
                    <circle
                       style="opacity:1;fill:#a70d16;fill-opacity:1;stroke:#000000;stroke-width:1.5;stroke-miterlimit:4;stroke-dasharray:none;stroke-dashoffset:0;stroke-opacity:1"
                       id="circle4460"
                       cx="227.71875"
                       cy="430.73541"
                       r="8.0812206" />
                    <circle
                       r="8.0812206"
                       cy="388.59256"
                       cx="220.5759"
                       id="circle4462"
                       style="opacity:1;fill:#a70d16;fill-opacity:1;stroke:#000000;stroke-width:1.5;stroke-miterlimit:4;stroke-dasharray:none;stroke-dashoffset:0;stroke-opacity:1" />
                    <circle
                       style="opacity:1;fill:#a70d16;fill-opacity:1;stroke:#000000;stroke-width:1.5;stroke-miterlimit:4;stroke-dasharray:none;stroke-dashoffset:0;stroke-opacity:1"
                       id="circle4464"
                       cx="230.5759"
                       cy="362.164"
                       r="8.0812206" />
                    <circle
                       r="8.0812206"
                       cy="357.8783"
                       cx="278.43304"
                       id="circle4466"
                       style="opacity:1;fill:#a70d16;fill-opacity:1;stroke:#000000;stroke-width:1.5;stroke-miterlimit:4;stroke-dasharray:none;stroke-dashoffset:0;stroke-opacity:1" />
                    <circle
                       style="opacity:1;fill:#a70d16;fill-opacity:1;stroke:#000000;stroke-width:1.5;stroke-miterlimit:4;stroke-dasharray:none;stroke-dashoffset:0;stroke-opacity:1"
                       id="circle4468"
                       cx="324.14734"
                       cy="347.164"
                       r="8.0812206" />
                    <circle
                       r="8.0812206"
                       cy="321.44971"
                       cx="373.43304"
                       id="circle4470"
                       style="opacity:1;fill:#a70d16;fill-opacity:1;stroke:#000000;stroke-width:1.5;stroke-miterlimit:4;stroke-dasharray:none;stroke-dashoffset:0;stroke-opacity:1" />
                    <circle
                       style="opacity:1;fill:#a70d16;fill-opacity:1;stroke:#000000;stroke-width:1.5;stroke-miterlimit:4;stroke-dasharray:none;stroke-dashoffset:0;stroke-opacity:1"
                       id="circle4472"
                       cx="407.00449"
                       cy="287.164"
                       r="8.0812206" />
                    <circle
                       r="8.0812206"
                       cy="250.73543"
                       cx="419.14734"
                       id="circle4474"
                       style="opacity:1;fill:#a70d16;fill-opacity:1;stroke:#000000;stroke-width:1.5;stroke-miterlimit:4;stroke-dasharray:none;stroke-dashoffset:0;stroke-opacity:1" />
                    <circle
                       style="opacity:1;fill:#a70d16;fill-opacity:1;stroke:#000000;stroke-width:1.5;stroke-miterlimit:4;stroke-dasharray:none;stroke-dashoffset:0;stroke-opacity:1"
                       id="circle4476"
                       cx="414.14734"
                       cy="225.73543"
                       r="8.0812206" />
                    <circle
                       r="8.0812206"
                       cy="248.30595"
                       cx="385.51172"
                       id="circle4478"
                       style="opacity:1;fill:#a70d16;fill-opacity:1;stroke:#000000;stroke-width:1.5;stroke-miterlimit:4;stroke-dasharray:none;stroke-dashoffset:0;stroke-opacity:1" />
                    <circle
                       style="opacity:1;fill:#a70d16;fill-opacity:1;stroke:#000000;stroke-width:1.5;stroke-miterlimit:4;stroke-dasharray:none;stroke-dashoffset:0;stroke-opacity:1"
                       id="circle4480"
                       cx="378.36887"
                       cy="266.87738"
                       r="8.0812206" />
                    <circle
                       style="opacity:1;fill:#a70d16;fill-opacity:1;stroke:#000000;stroke-width:1.5;stroke-miterlimit:4;stroke-dasharray:none;stroke-dashoffset:0;stroke-opacity:1"
                       id="circle4484"
                       cx="341.94028"
                       cy="288.30594"
                       r="8.0812206" />
                    <circle
                       r="8.0812206"
                       cy="288.80234"
                       cx="316.87155"
                       id="circle4486"
                       style="opacity:1;fill:#a70d16;fill-opacity:1;stroke:#000000;stroke-width:1.5;stroke-miterlimit:4;stroke-dasharray:none;stroke-dashoffset:0;stroke-opacity:1" />
                    <circle
                       style="opacity:1;fill:#a70d16;fill-opacity:1;stroke:#000000;stroke-width:1.5;stroke-miterlimit:4;stroke-dasharray:none;stroke-dashoffset:0;stroke-opacity:1"
                       id="circle4488"
                       cx="334.8616"
                       cy="270.02112"
                       r="8.0812206" />
                    <circle
                       r="8.0812206"
                       cy="260.02112"
                       cx="307.71875"
                       id="circle4490"
                       style="opacity:1;fill:#a70d16;fill-opacity:1;stroke:#000000;stroke-width:1.5;stroke-miterlimit:4;stroke-dasharray:none;stroke-dashoffset:0;stroke-opacity:1" />
                    <circle
                       style="opacity:1;fill:#a70d16;fill-opacity:1;stroke:#000000;stroke-width:1.5;stroke-miterlimit:4;stroke-dasharray:none;stroke-dashoffset:0;stroke-opacity:1"
                       id="circle4492"
                       cx="329.14731"
                       cy="224.30684"
                       r="8.0812206" />
                    <circle
                       r="8.0812206"
                       cy="229.30684"
                       cx="302.00446"
                       id="circle4494"
                       style="opacity:1;fill:#a70d16;fill-opacity:1;stroke:#000000;stroke-width:1.5;stroke-miterlimit:4;stroke-dasharray:none;stroke-dashoffset:0;stroke-opacity:1" />
                    <circle
                       style="opacity:1;fill:#a70d16;fill-opacity:1;stroke:#000000;stroke-width:1.5;stroke-miterlimit:4;stroke-dasharray:none;stroke-dashoffset:0;stroke-opacity:1"
                       id="circle4496"
                       cx="277.00446"
                       cy="223.59256"
                       r="8.0812206" />
                    <circle
                       r="8.0812206"
                       cy="203.59256"
                       cx="283.43301"
                       id="circle4498"
                       style="opacity:1;fill:#a70d16;fill-opacity:1;stroke:#000000;stroke-width:1.5;stroke-miterlimit:4;stroke-dasharray:none;stroke-dashoffset:0;stroke-opacity:1" />
                    <circle
                       style="opacity:1;fill:#a70d16;fill-opacity:1;stroke:#000000;stroke-width:1.5;stroke-miterlimit:4;stroke-dasharray:none;stroke-dashoffset:0;stroke-opacity:1"
                       id="circle4500"
                       cx="299.86157"
                       cy="180.73541"
                       r="8.0812206" />
                    <circle
                       r="8.0812206"
                       cy="192.16399"
                       cx="260.57587"
                       id="circle4502"
                       style="opacity:1;fill:#a70d16;fill-opacity:1;stroke:#000000;stroke-width:1.5;stroke-miterlimit:4;stroke-dasharray:none;stroke-dashoffset:0;stroke-opacity:1" />
                    <circle
                       style="opacity:1;fill:#a70d16;fill-opacity:1;stroke:#000000;stroke-width:1.5;stroke-miterlimit:4;stroke-dasharray:none;stroke-dashoffset:0;stroke-opacity:1"
                       id="circle4504"
                       cx="214.14729"
                       cy="195.02113"
                       r="8.0812206" />
                    <circle
                       r="8.0812206"
                       cy="209.30685"
                       cx="187.00444"
                       id="circle4506"
                       style="opacity:1;fill:#a70d16;fill-opacity:1;stroke:#000000;stroke-width:1.5;stroke-miterlimit:4;stroke-dasharray:none;stroke-dashoffset:0;stroke-opacity:1" />
                    <circle
                       style="opacity:1;fill:#a70d16;fill-opacity:1;stroke:#000000;stroke-width:1.5;stroke-miterlimit:4;stroke-dasharray:none;stroke-dashoffset:0;stroke-opacity:1"
                       id="circle4508"
                       cx="132.71872"
                       cy="217.164"
                       r="8.0812206" />
                    <circle
                       r="8.0812206"
                       cy="245.73543"
                       cx="113.43301"
                       id="circle4510"
                       style="opacity:1;fill:#a70d16;fill-opacity:1;stroke:#000000;stroke-width:1.5;stroke-miterlimit:4;stroke-dasharray:none;stroke-dashoffset:0;stroke-opacity:1" />
                    <circle
                       style="opacity:1;fill:#a70d16;fill-opacity:1;stroke:#000000;stroke-width:1.5;stroke-miterlimit:4;stroke-dasharray:none;stroke-dashoffset:0;stroke-opacity:1"
                       id="circle4512"
                       cx="77.718719"
                       cy="266.44971"
                       r="8.0812206" />
                    <circle
                       r="8.0812206"
                       cy="274.30685"
                       cx="48.433006"
                       id="circle4514"
                       style="opacity:1;fill:#a70d16;fill-opacity:1;stroke:#000000;stroke-width:1.5;stroke-miterlimit:4;stroke-dasharray:none;stroke-dashoffset:0;stroke-opacity:1" />
                    <circle
                       style="opacity:1;fill:#a70d16;fill-opacity:1;stroke:#000000;stroke-width:1.5;stroke-miterlimit:4;stroke-dasharray:none;stroke-dashoffset:0;stroke-opacity:1"
                       id="circle4516"
                       cx="62.004436"
                       cy="220.02113"
                       r="8.0812206" />
                    <circle
                       r="8.0812206"
                       cy="171.44971"
                       cx="86.290154"
                       id="circle4518"
                       style="opacity:1;fill:#a70d16;fill-opacity:1;stroke:#000000;stroke-width:1.5;stroke-miterlimit:4;stroke-dasharray:none;stroke-dashoffset:0;stroke-opacity:1" />
                  </g>
                </g>
              </g>
            </g>
          </g>
        </g>
      </g>
    </g>
  </g>
</svg>
