<svg version="1.1" viewBox="0.0 0.0 960.0 720.0" fill="none" stroke="none" stroke-linecap="square" stroke-miterlimit="10" xmlns:xlink="http://www.w3.org/1999/xlink" xmlns="http://www.w3.org/2000/svg"><clipPath id="p.0"><path d="m0 0l960.0 0l0 720.0l-960.0 0l0 -720.0z" clip-rule="nonzero"/></clipPath><g clip-path="url(#p.0)"><path fill="#000000" fill-opacity="0.0" d="m0 0l960.0 0l0 720.0l-960.0 0z" fill-rule="evenodd"/><path fill="#000000" d="m132.14473 359.99896l0 0c45.652634 0 82.66142 37.417694 82.66142 83.5748l0 0c0 22.165405 -8.708954 43.423004 -24.210968 59.096313c-15.502029 15.673309 -36.527283 24.478485 -58.450455 24.478485l0 0c-45.65264 0 -82.66142 -37.417725 -82.66142 -83.5748l0 0c0 -46.157104 37.008778 -83.5748 82.66142 -83.5748z" fill-rule="evenodd"/><path stroke="#000000" stroke-width="1.0" stroke-linejoin="round" stroke-linecap="butt" d="m132.14473 359.99896l0 0c45.652634 0 82.66142 37.417694 82.66142 83.5748l0 0c0 22.165405 -8.708954 43.423004 -24.210968 59.096313c-15.502029 15.673309 -36.527283 24.478485 -58.450455 24.478485l0 0c-45.65264 0 -82.66142 -37.417725 -82.66142 -83.5748l0 0c0 -46.157104 37.008778 -83.5748 82.66142 -83.5748z" fill-rule="evenodd"/><path fill="#000000" d="m397.43698 276.44043l0 0c68.43982 0 123.921295 56.123047 123.921295 125.35431l0 0c0 33.246063 -13.055969 65.1304 -36.295715 88.638916c-23.239746 23.508484 -54.759613 36.715454 -87.62558 36.715454l0 0c-68.43982 0 -123.921265 -56.123077 -123.921265 -125.35437l0 0c0 -69.23126 55.481445 -125.35431 123.921265 -125.35431z" fill-rule="evenodd"/><path stroke="#000000" stroke-width="1.0" stroke-linejoin="round" stroke-linecap="butt" d="m397.43698 276.44043l0 0c68.43982 0 123.921295 56.123047 123.921295 125.35431l0 0c0 33.246063 -13.055969 65.1304 -36.295715 88.638916c-23.239746 23.508484 -54.759613 36.715454 -87.62558 36.715454l0 0c-68.43982 0 -123.921265 -56.123077 -123.921265 -125.35437l0 0c0 -69.23126 55.481445 -125.35431 123.921265 -125.35431z" fill-rule="evenodd"/><path fill="#000000" d="m745.23224 196.66142l0 0c91.21832 0 165.16534 73.982285 165.16534 165.2441l0 0c0 43.82544 -17.401306 85.85593 -48.375793 116.845215c-30.974548 30.989288 -72.984985 48.398865 -116.78955 48.398865l0 0c-91.21832 0 -165.16534 -73.9823 -165.16534 -165.24408l0 0c0 -91.26181 73.94702 -165.2441 165.16534 -165.2441z" fill-rule="evenodd"/><path stroke="#000000" stroke-width="1.0" stroke-linejoin="round" stroke-linecap="butt" d="m745.23224 196.66142l0 0c91.21832 0 165.16534 73.982285 165.16534 165.2441l0 0c0 43.82544 -17.401306 85.85593 -48.375793 116.845215c-30.974548 30.989288 -72.984985 48.398865 -116.78955 48.398865l0 0c-91.21832 0 -165.16534 -73.9823 -165.16534 -165.24408l0 0c0 -91.26181 73.94702 -165.2441 165.16534 -165.2441z" fill-rule="evenodd"/></g></svg>